<svg xmlns="http://www.w3.org/2000/svg" width="20.001" height="30.823" viewBox="0 0 20.001 30.823">
  <g id="Tracé_10" data-name="Tracé 10" transform="translate(0 10.823)" fill="#c64747">
    <path d="M 9.999998092651367 19.50000381469727 C 4.761677742004395 19.50000381469727 0.4999979138374329 15.23832321166992 0.4999979138374329 10.00000286102295 C 0.4999979138374329 8.700102806091309 1.06211793422699 7.296213150024414 2.170747995376587 5.827323436737061 C 3.223608016967773 4.432333469390869 4.806397914886475 2.930763244628906 6.875137805938721 1.364313244819641 C 7.504598140716553 0.8878932595252991 8.191178321838379 0.4189332723617554 8.918067932128906 -0.07756673544645309 C 11.76571750640869 -2.022616624832153 14.9932975769043 -4.22719669342041 16.56395721435547 -8.101487159729004 C 17.36168479919434 -10.06920623779297 17.8192081451416 -10.29694557189941 17.88651275634766 -10.3205041885376 C 17.94647979736328 -10.28405666351318 18.33518028259277 -9.975502014160156 18.69826698303223 -7.972656726837158 C 18.9437370300293 -6.61859655380249 19.1356086730957 -4.733226776123047 19.26856803894043 -2.368926763534546 C 19.50880813598633 1.903353214263916 19.50342750549316 6.720643043518066 19.50053787231445 9.308652877807617 C 19.50025749206543 9.561653137207031 19.49999809265137 9.792983055114746 19.49999809265137 10.00000286102295 C 19.49999809265137 15.23832321166992 15.23831748962402 19.50000381469727 9.999998092651367 19.50000381469727 Z" stroke="none"/>
    <path d="M 17.79911422729492 -9.493973731994629 C 17.61749839782715 -9.211612701416016 17.35777854919434 -8.728742599487305 17.02732849121094 -7.913626670837402 C 15.39995765686035 -3.89945650100708 12.10614776611328 -1.649646759033203 9.200087547302246 0.3353133201599121 C 8.478358268737793 0.8282832503318787 7.796648025512695 1.293923258781433 7.17697811126709 1.762933254241943 C 3.078227996826172 4.866483211517334 0.9999980926513672 7.637833118438721 0.9999980926513672 10.00000286102295 C 0.9999980926513672 14.96262359619141 5.037378311157227 19.00000381469727 9.999998092651367 19.00000381469727 C 14.96261787414551 19.00000381469727 18.99999809265137 14.96262359619141 18.99999809265137 10.00000286102295 C 18.99999809265137 9.79282283782959 19.00025749206543 9.561313629150391 19.00053787231445 9.308122634887695 C 19.00325775146484 6.867743492126465 19.00833702087402 2.325263261795044 18.79873847961426 -1.791906833648682 C 18.6832275390625 -4.060866832733154 18.51656723022461 -5.914476871490479 18.30339813232422 -7.301257133483887 C 18.12477874755859 -8.463201522827148 17.93814468383789 -9.125187873840332 17.79911422729492 -9.493973731994629 M 17.89155387878418 -10.82282638549805 C 20.1246223449707 -10.82282638549805 19.99999809265137 5.454034328460693 19.99999809265137 10.00000286102295 C 19.99999809265137 15.52284336090088 15.52284812927246 20.00000381469727 9.999998092651367 20.00000381469727 C 4.477148056030273 20.00000381469727 -1.9073486328125e-06 15.52284336090088 -1.9073486328125e-06 10.00000286102295 C -1.9073486328125e-06 7.056323051452637 2.533327102661133 4.024753570556641 6.573307991027832 0.9656932950019836 C 9.675848007202148 -1.382506847381592 14.19376754760742 -3.585846900939941 16.10058784484863 -8.289337158203125 C 16.82281112670898 -10.07082176208496 17.41168975830078 -10.82282638549805 17.89155387878418 -10.82282638549805 Z" stroke="none" fill="#c64747"/>
  </g>
</svg>
